<svg xmlns="http://www.w3.org/2000/svg" version="1.1" xmlns:xlink="http://www.w3.org/1999/xlink" xmlns:svgjs="http://svgjs.com/svgjs" width="1440" height="560" preserveAspectRatio="none" viewBox="0 0 1440 560"><g mask="url(&quot;#SvgjsMask1013&quot;)" fill="none"><rect width="1440" height="560" x="0" y="0" fill="rgba(238, 237, 255, 1)"></rect><path d="M4.61 -15.63L34.92 1.87L34.92 36.87L4.61 54.37L-25.7 36.87L-25.7 1.87zM4.61 509.37L34.92 526.87L34.92 561.87L4.61 579.37L-25.7 561.87L-25.7 526.87zM65.23 299.37L95.55 316.87L95.55 351.87L65.23 369.37L34.92 351.87L34.92 316.87zM95.55 351.87L125.86 369.37L125.86 404.37L95.55 421.87L65.23 404.37L65.23 369.37zM95.55 561.87L125.86 579.37L125.86 614.37L95.55 631.87L65.23 614.37L65.23 579.37zM125.86 299.37L156.17 316.87L156.17 351.87L125.86 369.37L95.55 351.87L95.55 316.87zM125.86 404.37L156.17 421.87L156.17 456.87L125.86 474.37L95.55 456.87L95.55 421.87zM186.48 -15.63L216.79 1.87L216.79 36.87L186.48 54.37L156.17 36.87L156.17 1.87zM186.48 89.37L216.79 106.87L216.79 141.87L186.48 159.37L156.17 141.87L156.17 106.87zM216.79 246.87L247.1 264.37L247.1 299.37L216.79 316.87L186.48 299.37L186.48 264.37zM186.48 404.37L216.79 421.87L216.79 456.87L186.48 474.37L156.17 456.87L156.17 421.87zM277.42 36.87L307.73 54.37L307.73 89.37L277.42 106.87L247.1 89.37L247.1 54.37zM277.42 351.87L307.73 369.37L307.73 404.37L277.42 421.87L247.1 404.37L247.1 369.37zM277.42 456.87L307.73 474.37L307.73 509.37L277.42 526.87L247.1 509.37L247.1 474.37zM307.73 -15.63L338.04 1.87L338.04 36.87L307.73 54.37L277.42 36.87L277.42 1.87zM338.04 36.87L368.35 54.37L368.35 89.37L338.04 106.87L307.73 89.37L307.73 54.37zM307.73 89.37L338.04 106.87L338.04 141.87L307.73 159.37L277.42 141.87L277.42 106.87zM338.04 351.87L368.35 369.37L368.35 404.37L338.04 421.87L307.73 404.37L307.73 369.37zM338.04 456.87L368.35 474.37L368.35 509.37L338.04 526.87L307.73 509.37L307.73 474.37zM368.35 194.37L398.66 211.87L398.66 246.87L368.35 264.37L338.04 246.87L338.04 211.87zM398.66 246.87L428.97 264.37L428.97 299.37L398.66 316.87L368.35 299.37L368.35 264.37zM398.66 351.87L428.97 369.37L428.97 404.37L398.66 421.87L368.35 404.37L368.35 369.37zM459.29 36.87L489.6 54.37L489.6 89.37L459.29 106.87L428.97 89.37L428.97 54.37zM428.97 404.37L459.29 421.87L459.29 456.87L428.97 474.37L398.66 456.87L398.66 421.87zM519.91 141.87L550.22 159.37L550.22 194.37L519.91 211.87L489.6 194.37L489.6 159.37zM550.22 -15.63L580.53 1.87L580.53 36.87L550.22 54.37L519.91 36.87L519.91 1.87zM580.53 141.87L610.84 159.37L610.84 194.37L580.53 211.87L550.22 194.37L550.22 159.37zM580.53 351.87L610.84 369.37L610.84 404.37L580.53 421.87L550.22 404.37L550.22 369.37zM580.53 561.87L610.84 579.37L610.84 614.37L580.53 631.87L550.22 614.37L550.22 579.37zM641.16 141.87L671.47 159.37L671.47 194.37L641.16 211.87L610.85 194.37L610.85 159.37zM641.16 456.87L671.47 474.37L671.47 509.37L641.16 526.87L610.85 509.37L610.85 474.37zM610.85 509.37L641.16 526.87L641.16 561.87L610.85 579.37L580.53 561.87L580.53 526.87zM671.47 89.37L701.78 106.87L701.78 141.87L671.47 159.37L641.16 141.87L641.16 106.87zM732.09 194.37L762.4 211.87L762.4 246.87L732.09 264.37L701.78 246.87L701.78 211.87zM762.4 456.87L792.72 474.37L792.72 509.37L762.4 526.87L732.09 509.37L732.09 474.37zM762.4 561.87L792.72 579.37L792.72 614.37L762.4 631.87L732.09 614.37L732.09 579.37zM792.72 -15.63L823.03 1.87L823.03 36.87L792.72 54.37L762.4 36.87L762.4 1.87zM823.03 351.87L853.34 369.37L853.34 404.37L823.03 421.87L792.72 404.37L792.72 369.37zM853.34 194.37L883.65 211.87L883.65 246.87L853.34 264.37L823.03 246.87L823.03 211.87zM883.65 246.87L913.96 264.37L913.96 299.37L883.65 316.87L853.34 299.37L853.34 264.37zM853.34 404.37L883.65 421.87L883.65 456.87L853.34 474.37L823.03 456.87L823.03 421.87zM883.65 561.87L913.96 579.37L913.96 614.37L883.65 631.87L853.34 614.37L853.34 579.37zM974.59 194.37L1004.9 211.87L1004.9 246.87L974.59 264.37L944.27 246.87L944.27 211.87zM974.59 404.37L1004.9 421.87L1004.9 456.87L974.59 474.37L944.27 456.87L944.27 421.87zM1065.52 36.87L1095.83 54.37L1095.83 89.37L1065.52 106.87L1035.21 89.37L1035.21 54.37zM1035.21 89.37L1065.52 106.87L1065.52 141.87L1035.21 159.37L1004.9 141.87L1004.9 106.87zM1035.21 404.37L1065.52 421.87L1065.52 456.87L1035.21 474.37L1004.9 456.87L1004.9 421.87zM1126.14 141.87L1156.46 159.37L1156.46 194.37L1126.14 211.87L1095.83 194.37L1095.83 159.37zM1095.83 509.37L1126.14 526.87L1126.14 561.87L1095.83 579.37L1065.52 561.87L1065.52 526.87zM1186.77 36.87L1217.08 54.37L1217.08 89.37L1186.77 106.87L1156.46 89.37L1156.46 54.37zM1156.46 89.37L1186.77 106.87L1186.77 141.87L1156.46 159.37L1126.14 141.87L1126.14 106.87zM1156.46 194.37L1186.77 211.87L1186.77 246.87L1156.46 264.37L1126.14 246.87L1126.14 211.87zM1156.46 299.37L1186.77 316.87L1186.77 351.87L1156.46 369.37L1126.14 351.87L1126.14 316.87zM1156.46 404.37L1186.77 421.87L1186.77 456.87L1156.46 474.37L1126.14 456.87L1126.14 421.87zM1247.39 36.87L1277.7 54.37L1277.7 89.37L1247.39 106.87L1217.08 89.37L1217.08 54.37zM1308.02 36.87L1338.33 54.37L1338.33 89.37L1308.02 106.87L1277.7 89.37L1277.7 54.37zM1277.7 89.37L1308.02 106.87L1308.02 141.87L1277.7 159.37L1247.39 141.87L1247.39 106.87zM1308.02 246.87L1338.33 264.37L1338.33 299.37L1308.02 316.87L1277.7 299.37L1277.7 264.37zM1277.7 299.37L1308.02 316.87L1308.02 351.87L1277.7 369.37L1247.39 351.87L1247.39 316.87zM1277.7 404.37L1308.02 421.87L1308.02 456.87L1277.7 474.37L1247.39 456.87L1247.39 421.87zM1338.33 194.37L1368.64 211.87L1368.64 246.87L1338.33 264.37L1308.02 246.87L1308.02 211.87zM1338.33 404.37L1368.64 421.87L1368.64 456.87L1338.33 474.37L1308.02 456.87L1308.02 421.87zM1429.26 36.87L1459.57 54.37L1459.57 89.37L1429.26 106.87L1398.95 89.37L1398.95 54.37zM1398.95 194.37L1429.26 211.87L1429.26 246.87L1398.95 264.37L1368.64 246.87L1368.64 211.87zM1398.95 299.37L1429.26 316.87L1429.26 351.87L1398.95 369.37L1368.64 351.87L1368.64 316.87zM1429.26 456.87L1459.57 474.37L1459.57 509.37L1429.26 526.87L1398.95 509.37L1398.95 474.37zM1398.95 509.37L1429.26 526.87L1429.26 561.87L1398.95 579.37L1368.64 561.87L1368.64 526.87z" stroke="rgba(141, 134, 255, 1)" stroke-width="2"></path><path d="M1.11 -15.63 a3.5 3.5 0 1 0 7 0 a3.5 3.5 0 1 0 -7 0zM31.42 1.87 a3.5 3.5 0 1 0 7 0 a3.5 3.5 0 1 0 -7 0zM31.42 36.87 a3.5 3.5 0 1 0 7 0 a3.5 3.5 0 1 0 -7 0zM1.11 54.37 a3.5 3.5 0 1 0 7 0 a3.5 3.5 0 1 0 -7 0zM-29.2 36.87 a3.5 3.5 0 1 0 7 0 a3.5 3.5 0 1 0 -7 0zM-29.2 1.87 a3.5 3.5 0 1 0 7 0 a3.5 3.5 0 1 0 -7 0zM1.11 509.37 a3.5 3.5 0 1 0 7 0 a3.5 3.5 0 1 0 -7 0zM31.42 526.87 a3.5 3.5 0 1 0 7 0 a3.5 3.5 0 1 0 -7 0zM31.42 561.87 a3.5 3.5 0 1 0 7 0 a3.5 3.5 0 1 0 -7 0zM1.11 579.37 a3.5 3.5 0 1 0 7 0 a3.5 3.5 0 1 0 -7 0zM-29.2 561.87 a3.5 3.5 0 1 0 7 0 a3.5 3.5 0 1 0 -7 0zM-29.2 526.87 a3.5 3.5 0 1 0 7 0 a3.5 3.5 0 1 0 -7 0zM61.73 299.37 a3.5 3.5 0 1 0 7 0 a3.5 3.5 0 1 0 -7 0zM92.05 316.87 a3.5 3.5 0 1 0 7 0 a3.5 3.5 0 1 0 -7 0zM92.05 351.87 a3.5 3.5 0 1 0 7 0 a3.5 3.5 0 1 0 -7 0zM61.73 369.37 a3.5 3.5 0 1 0 7 0 a3.5 3.5 0 1 0 -7 0zM31.42 351.87 a3.5 3.5 0 1 0 7 0 a3.5 3.5 0 1 0 -7 0zM31.42 316.87 a3.5 3.5 0 1 0 7 0 a3.5 3.5 0 1 0 -7 0zM122.36 369.37 a3.5 3.5 0 1 0 7 0 a3.5 3.5 0 1 0 -7 0zM122.36 404.37 a3.5 3.5 0 1 0 7 0 a3.5 3.5 0 1 0 -7 0zM92.05 421.87 a3.5 3.5 0 1 0 7 0 a3.5 3.5 0 1 0 -7 0zM61.73 404.37 a3.5 3.5 0 1 0 7 0 a3.5 3.5 0 1 0 -7 0zM92.05 561.87 a3.5 3.5 0 1 0 7 0 a3.5 3.5 0 1 0 -7 0zM122.36 579.37 a3.5 3.5 0 1 0 7 0 a3.5 3.5 0 1 0 -7 0zM122.36 614.37 a3.5 3.5 0 1 0 7 0 a3.5 3.5 0 1 0 -7 0zM92.05 631.87 a3.5 3.5 0 1 0 7 0 a3.5 3.5 0 1 0 -7 0zM61.73 614.37 a3.5 3.5 0 1 0 7 0 a3.5 3.5 0 1 0 -7 0zM61.73 579.37 a3.5 3.5 0 1 0 7 0 a3.5 3.5 0 1 0 -7 0zM122.36 299.37 a3.5 3.5 0 1 0 7 0 a3.5 3.5 0 1 0 -7 0zM152.67 316.87 a3.5 3.5 0 1 0 7 0 a3.5 3.5 0 1 0 -7 0zM152.67 351.87 a3.5 3.5 0 1 0 7 0 a3.5 3.5 0 1 0 -7 0zM152.67 421.87 a3.5 3.5 0 1 0 7 0 a3.5 3.5 0 1 0 -7 0zM152.67 456.87 a3.5 3.5 0 1 0 7 0 a3.5 3.5 0 1 0 -7 0zM122.36 474.37 a3.5 3.5 0 1 0 7 0 a3.5 3.5 0 1 0 -7 0zM92.05 456.87 a3.5 3.5 0 1 0 7 0 a3.5 3.5 0 1 0 -7 0zM182.98 -15.63 a3.5 3.5 0 1 0 7 0 a3.5 3.5 0 1 0 -7 0zM213.29 1.87 a3.5 3.5 0 1 0 7 0 a3.5 3.5 0 1 0 -7 0zM213.29 36.87 a3.5 3.5 0 1 0 7 0 a3.5 3.5 0 1 0 -7 0zM182.98 54.37 a3.5 3.5 0 1 0 7 0 a3.5 3.5 0 1 0 -7 0zM152.67 36.87 a3.5 3.5 0 1 0 7 0 a3.5 3.5 0 1 0 -7 0zM152.67 1.87 a3.5 3.5 0 1 0 7 0 a3.5 3.5 0 1 0 -7 0zM182.98 89.37 a3.5 3.5 0 1 0 7 0 a3.5 3.5 0 1 0 -7 0zM213.29 106.87 a3.5 3.5 0 1 0 7 0 a3.5 3.5 0 1 0 -7 0zM213.29 141.87 a3.5 3.5 0 1 0 7 0 a3.5 3.5 0 1 0 -7 0zM182.98 159.37 a3.5 3.5 0 1 0 7 0 a3.5 3.5 0 1 0 -7 0zM152.67 141.87 a3.5 3.5 0 1 0 7 0 a3.5 3.5 0 1 0 -7 0zM152.67 106.87 a3.5 3.5 0 1 0 7 0 a3.5 3.5 0 1 0 -7 0zM213.29 246.87 a3.5 3.5 0 1 0 7 0 a3.5 3.5 0 1 0 -7 0zM243.6 264.37 a3.5 3.5 0 1 0 7 0 a3.5 3.5 0 1 0 -7 0zM243.6 299.37 a3.5 3.5 0 1 0 7 0 a3.5 3.5 0 1 0 -7 0zM213.29 316.87 a3.5 3.5 0 1 0 7 0 a3.5 3.5 0 1 0 -7 0zM182.98 299.37 a3.5 3.5 0 1 0 7 0 a3.5 3.5 0 1 0 -7 0zM182.98 264.37 a3.5 3.5 0 1 0 7 0 a3.5 3.5 0 1 0 -7 0zM182.98 404.37 a3.5 3.5 0 1 0 7 0 a3.5 3.5 0 1 0 -7 0zM213.29 421.87 a3.5 3.5 0 1 0 7 0 a3.5 3.5 0 1 0 -7 0zM213.29 456.87 a3.5 3.5 0 1 0 7 0 a3.5 3.5 0 1 0 -7 0zM182.98 474.37 a3.5 3.5 0 1 0 7 0 a3.5 3.5 0 1 0 -7 0zM273.92 36.87 a3.5 3.5 0 1 0 7 0 a3.5 3.5 0 1 0 -7 0zM304.23 54.37 a3.5 3.5 0 1 0 7 0 a3.5 3.5 0 1 0 -7 0zM304.23 89.37 a3.5 3.5 0 1 0 7 0 a3.5 3.5 0 1 0 -7 0zM273.92 106.87 a3.5 3.5 0 1 0 7 0 a3.5 3.5 0 1 0 -7 0zM243.6 89.37 a3.5 3.5 0 1 0 7 0 a3.5 3.5 0 1 0 -7 0zM243.6 54.37 a3.5 3.5 0 1 0 7 0 a3.5 3.5 0 1 0 -7 0zM273.92 351.87 a3.5 3.5 0 1 0 7 0 a3.5 3.5 0 1 0 -7 0zM304.23 369.37 a3.5 3.5 0 1 0 7 0 a3.5 3.5 0 1 0 -7 0zM304.23 404.37 a3.5 3.5 0 1 0 7 0 a3.5 3.5 0 1 0 -7 0zM273.92 421.87 a3.5 3.5 0 1 0 7 0 a3.5 3.5 0 1 0 -7 0zM243.6 404.37 a3.5 3.5 0 1 0 7 0 a3.5 3.5 0 1 0 -7 0zM243.6 369.37 a3.5 3.5 0 1 0 7 0 a3.5 3.5 0 1 0 -7 0zM273.92 456.87 a3.5 3.5 0 1 0 7 0 a3.5 3.5 0 1 0 -7 0zM304.23 474.37 a3.5 3.5 0 1 0 7 0 a3.5 3.5 0 1 0 -7 0zM304.23 509.37 a3.5 3.5 0 1 0 7 0 a3.5 3.5 0 1 0 -7 0zM273.92 526.87 a3.5 3.5 0 1 0 7 0 a3.5 3.5 0 1 0 -7 0zM243.6 509.37 a3.5 3.5 0 1 0 7 0 a3.5 3.5 0 1 0 -7 0zM243.6 474.37 a3.5 3.5 0 1 0 7 0 a3.5 3.5 0 1 0 -7 0zM304.23 -15.63 a3.5 3.5 0 1 0 7 0 a3.5 3.5 0 1 0 -7 0zM334.54 1.87 a3.5 3.5 0 1 0 7 0 a3.5 3.5 0 1 0 -7 0zM334.54 36.87 a3.5 3.5 0 1 0 7 0 a3.5 3.5 0 1 0 -7 0zM273.92 1.87 a3.5 3.5 0 1 0 7 0 a3.5 3.5 0 1 0 -7 0zM364.85 54.37 a3.5 3.5 0 1 0 7 0 a3.5 3.5 0 1 0 -7 0zM364.85 89.37 a3.5 3.5 0 1 0 7 0 a3.5 3.5 0 1 0 -7 0zM334.54 106.87 a3.5 3.5 0 1 0 7 0 a3.5 3.5 0 1 0 -7 0zM334.54 141.87 a3.5 3.5 0 1 0 7 0 a3.5 3.5 0 1 0 -7 0zM304.23 159.37 a3.5 3.5 0 1 0 7 0 a3.5 3.5 0 1 0 -7 0zM273.92 141.87 a3.5 3.5 0 1 0 7 0 a3.5 3.5 0 1 0 -7 0zM334.54 351.87 a3.5 3.5 0 1 0 7 0 a3.5 3.5 0 1 0 -7 0zM364.85 369.37 a3.5 3.5 0 1 0 7 0 a3.5 3.5 0 1 0 -7 0zM364.85 404.37 a3.5 3.5 0 1 0 7 0 a3.5 3.5 0 1 0 -7 0zM334.54 421.87 a3.5 3.5 0 1 0 7 0 a3.5 3.5 0 1 0 -7 0zM334.54 456.87 a3.5 3.5 0 1 0 7 0 a3.5 3.5 0 1 0 -7 0zM364.85 474.37 a3.5 3.5 0 1 0 7 0 a3.5 3.5 0 1 0 -7 0zM364.85 509.37 a3.5 3.5 0 1 0 7 0 a3.5 3.5 0 1 0 -7 0zM334.54 526.87 a3.5 3.5 0 1 0 7 0 a3.5 3.5 0 1 0 -7 0zM364.85 194.37 a3.5 3.5 0 1 0 7 0 a3.5 3.5 0 1 0 -7 0zM395.16 211.87 a3.5 3.5 0 1 0 7 0 a3.5 3.5 0 1 0 -7 0zM395.16 246.87 a3.5 3.5 0 1 0 7 0 a3.5 3.5 0 1 0 -7 0zM364.85 264.37 a3.5 3.5 0 1 0 7 0 a3.5 3.5 0 1 0 -7 0zM334.54 246.87 a3.5 3.5 0 1 0 7 0 a3.5 3.5 0 1 0 -7 0zM334.54 211.87 a3.5 3.5 0 1 0 7 0 a3.5 3.5 0 1 0 -7 0zM425.47 264.37 a3.5 3.5 0 1 0 7 0 a3.5 3.5 0 1 0 -7 0zM425.47 299.37 a3.5 3.5 0 1 0 7 0 a3.5 3.5 0 1 0 -7 0zM395.16 316.87 a3.5 3.5 0 1 0 7 0 a3.5 3.5 0 1 0 -7 0zM364.85 299.37 a3.5 3.5 0 1 0 7 0 a3.5 3.5 0 1 0 -7 0zM395.16 351.87 a3.5 3.5 0 1 0 7 0 a3.5 3.5 0 1 0 -7 0zM425.47 369.37 a3.5 3.5 0 1 0 7 0 a3.5 3.5 0 1 0 -7 0zM425.47 404.37 a3.5 3.5 0 1 0 7 0 a3.5 3.5 0 1 0 -7 0zM395.16 421.87 a3.5 3.5 0 1 0 7 0 a3.5 3.5 0 1 0 -7 0zM455.79 36.87 a3.5 3.5 0 1 0 7 0 a3.5 3.5 0 1 0 -7 0zM486.1 54.37 a3.5 3.5 0 1 0 7 0 a3.5 3.5 0 1 0 -7 0zM486.1 89.37 a3.5 3.5 0 1 0 7 0 a3.5 3.5 0 1 0 -7 0zM455.79 106.87 a3.5 3.5 0 1 0 7 0 a3.5 3.5 0 1 0 -7 0zM425.47 89.37 a3.5 3.5 0 1 0 7 0 a3.5 3.5 0 1 0 -7 0zM425.47 54.37 a3.5 3.5 0 1 0 7 0 a3.5 3.5 0 1 0 -7 0zM455.79 421.87 a3.5 3.5 0 1 0 7 0 a3.5 3.5 0 1 0 -7 0zM455.79 456.87 a3.5 3.5 0 1 0 7 0 a3.5 3.5 0 1 0 -7 0zM425.47 474.37 a3.5 3.5 0 1 0 7 0 a3.5 3.5 0 1 0 -7 0zM395.16 456.87 a3.5 3.5 0 1 0 7 0 a3.5 3.5 0 1 0 -7 0zM516.41 141.87 a3.5 3.5 0 1 0 7 0 a3.5 3.5 0 1 0 -7 0zM546.72 159.37 a3.5 3.5 0 1 0 7 0 a3.5 3.5 0 1 0 -7 0zM546.72 194.37 a3.5 3.5 0 1 0 7 0 a3.5 3.5 0 1 0 -7 0zM516.41 211.87 a3.5 3.5 0 1 0 7 0 a3.5 3.5 0 1 0 -7 0zM486.1 194.37 a3.5 3.5 0 1 0 7 0 a3.5 3.5 0 1 0 -7 0zM486.1 159.37 a3.5 3.5 0 1 0 7 0 a3.5 3.5 0 1 0 -7 0zM546.72 -15.63 a3.5 3.5 0 1 0 7 0 a3.5 3.5 0 1 0 -7 0zM577.03 1.87 a3.5 3.5 0 1 0 7 0 a3.5 3.5 0 1 0 -7 0zM577.03 36.87 a3.5 3.5 0 1 0 7 0 a3.5 3.5 0 1 0 -7 0zM546.72 54.37 a3.5 3.5 0 1 0 7 0 a3.5 3.5 0 1 0 -7 0zM516.41 36.87 a3.5 3.5 0 1 0 7 0 a3.5 3.5 0 1 0 -7 0zM516.41 1.87 a3.5 3.5 0 1 0 7 0 a3.5 3.5 0 1 0 -7 0zM577.03 141.87 a3.5 3.5 0 1 0 7 0 a3.5 3.5 0 1 0 -7 0zM607.34 159.37 a3.5 3.5 0 1 0 7 0 a3.5 3.5 0 1 0 -7 0zM607.34 194.37 a3.5 3.5 0 1 0 7 0 a3.5 3.5 0 1 0 -7 0zM577.03 211.87 a3.5 3.5 0 1 0 7 0 a3.5 3.5 0 1 0 -7 0zM577.03 351.87 a3.5 3.5 0 1 0 7 0 a3.5 3.5 0 1 0 -7 0zM607.34 369.37 a3.5 3.5 0 1 0 7 0 a3.5 3.5 0 1 0 -7 0zM607.34 404.37 a3.5 3.5 0 1 0 7 0 a3.5 3.5 0 1 0 -7 0zM577.03 421.87 a3.5 3.5 0 1 0 7 0 a3.5 3.5 0 1 0 -7 0zM546.72 404.37 a3.5 3.5 0 1 0 7 0 a3.5 3.5 0 1 0 -7 0zM546.72 369.37 a3.5 3.5 0 1 0 7 0 a3.5 3.5 0 1 0 -7 0zM577.03 561.87 a3.5 3.5 0 1 0 7 0 a3.5 3.5 0 1 0 -7 0zM607.34 579.37 a3.5 3.5 0 1 0 7 0 a3.5 3.5 0 1 0 -7 0zM607.34 614.37 a3.5 3.5 0 1 0 7 0 a3.5 3.5 0 1 0 -7 0zM577.03 631.87 a3.5 3.5 0 1 0 7 0 a3.5 3.5 0 1 0 -7 0zM546.72 614.37 a3.5 3.5 0 1 0 7 0 a3.5 3.5 0 1 0 -7 0zM546.72 579.37 a3.5 3.5 0 1 0 7 0 a3.5 3.5 0 1 0 -7 0zM637.66 141.87 a3.5 3.5 0 1 0 7 0 a3.5 3.5 0 1 0 -7 0zM667.97 159.37 a3.5 3.5 0 1 0 7 0 a3.5 3.5 0 1 0 -7 0zM667.97 194.37 a3.5 3.5 0 1 0 7 0 a3.5 3.5 0 1 0 -7 0zM637.66 211.87 a3.5 3.5 0 1 0 7 0 a3.5 3.5 0 1 0 -7 0zM607.35 194.37 a3.5 3.5 0 1 0 7 0 a3.5 3.5 0 1 0 -7 0zM607.35 159.37 a3.5 3.5 0 1 0 7 0 a3.5 3.5 0 1 0 -7 0zM637.66 456.87 a3.5 3.5 0 1 0 7 0 a3.5 3.5 0 1 0 -7 0zM667.97 474.37 a3.5 3.5 0 1 0 7 0 a3.5 3.5 0 1 0 -7 0zM667.97 509.37 a3.5 3.5 0 1 0 7 0 a3.5 3.5 0 1 0 -7 0zM637.66 526.87 a3.5 3.5 0 1 0 7 0 a3.5 3.5 0 1 0 -7 0zM607.35 509.37 a3.5 3.5 0 1 0 7 0 a3.5 3.5 0 1 0 -7 0zM607.35 474.37 a3.5 3.5 0 1 0 7 0 a3.5 3.5 0 1 0 -7 0zM637.66 561.87 a3.5 3.5 0 1 0 7 0 a3.5 3.5 0 1 0 -7 0zM607.35 579.37 a3.5 3.5 0 1 0 7 0 a3.5 3.5 0 1 0 -7 0zM577.03 526.87 a3.5 3.5 0 1 0 7 0 a3.5 3.5 0 1 0 -7 0zM667.97 89.37 a3.5 3.5 0 1 0 7 0 a3.5 3.5 0 1 0 -7 0zM698.28 106.87 a3.5 3.5 0 1 0 7 0 a3.5 3.5 0 1 0 -7 0zM698.28 141.87 a3.5 3.5 0 1 0 7 0 a3.5 3.5 0 1 0 -7 0zM637.66 106.87 a3.5 3.5 0 1 0 7 0 a3.5 3.5 0 1 0 -7 0zM728.59 194.37 a3.5 3.5 0 1 0 7 0 a3.5 3.5 0 1 0 -7 0zM758.9 211.87 a3.5 3.5 0 1 0 7 0 a3.5 3.5 0 1 0 -7 0zM758.9 246.87 a3.5 3.5 0 1 0 7 0 a3.5 3.5 0 1 0 -7 0zM728.59 264.37 a3.5 3.5 0 1 0 7 0 a3.5 3.5 0 1 0 -7 0zM698.28 246.87 a3.5 3.5 0 1 0 7 0 a3.5 3.5 0 1 0 -7 0zM698.28 211.87 a3.5 3.5 0 1 0 7 0 a3.5 3.5 0 1 0 -7 0zM758.9 456.87 a3.5 3.5 0 1 0 7 0 a3.5 3.5 0 1 0 -7 0zM789.22 474.37 a3.5 3.5 0 1 0 7 0 a3.5 3.5 0 1 0 -7 0zM789.22 509.37 a3.5 3.5 0 1 0 7 0 a3.5 3.5 0 1 0 -7 0zM758.9 526.87 a3.5 3.5 0 1 0 7 0 a3.5 3.5 0 1 0 -7 0zM728.59 509.37 a3.5 3.5 0 1 0 7 0 a3.5 3.5 0 1 0 -7 0zM728.59 474.37 a3.5 3.5 0 1 0 7 0 a3.5 3.5 0 1 0 -7 0zM758.9 561.87 a3.5 3.5 0 1 0 7 0 a3.5 3.5 0 1 0 -7 0zM789.22 579.37 a3.5 3.5 0 1 0 7 0 a3.5 3.5 0 1 0 -7 0zM789.22 614.37 a3.5 3.5 0 1 0 7 0 a3.5 3.5 0 1 0 -7 0zM758.9 631.87 a3.5 3.5 0 1 0 7 0 a3.5 3.5 0 1 0 -7 0zM728.59 614.37 a3.5 3.5 0 1 0 7 0 a3.5 3.5 0 1 0 -7 0zM728.59 579.37 a3.5 3.5 0 1 0 7 0 a3.5 3.5 0 1 0 -7 0zM789.22 -15.63 a3.5 3.5 0 1 0 7 0 a3.5 3.5 0 1 0 -7 0zM819.53 1.87 a3.5 3.5 0 1 0 7 0 a3.5 3.5 0 1 0 -7 0zM819.53 36.87 a3.5 3.5 0 1 0 7 0 a3.5 3.5 0 1 0 -7 0zM789.22 54.37 a3.5 3.5 0 1 0 7 0 a3.5 3.5 0 1 0 -7 0zM758.9 36.87 a3.5 3.5 0 1 0 7 0 a3.5 3.5 0 1 0 -7 0zM758.9 1.87 a3.5 3.5 0 1 0 7 0 a3.5 3.5 0 1 0 -7 0zM819.53 351.87 a3.5 3.5 0 1 0 7 0 a3.5 3.5 0 1 0 -7 0zM849.84 369.37 a3.5 3.5 0 1 0 7 0 a3.5 3.5 0 1 0 -7 0zM849.84 404.37 a3.5 3.5 0 1 0 7 0 a3.5 3.5 0 1 0 -7 0zM819.53 421.87 a3.5 3.5 0 1 0 7 0 a3.5 3.5 0 1 0 -7 0zM789.22 404.37 a3.5 3.5 0 1 0 7 0 a3.5 3.5 0 1 0 -7 0zM789.22 369.37 a3.5 3.5 0 1 0 7 0 a3.5 3.5 0 1 0 -7 0zM849.84 194.37 a3.5 3.5 0 1 0 7 0 a3.5 3.5 0 1 0 -7 0zM880.15 211.87 a3.5 3.5 0 1 0 7 0 a3.5 3.5 0 1 0 -7 0zM880.15 246.87 a3.5 3.5 0 1 0 7 0 a3.5 3.5 0 1 0 -7 0zM849.84 264.37 a3.5 3.5 0 1 0 7 0 a3.5 3.5 0 1 0 -7 0zM819.53 246.87 a3.5 3.5 0 1 0 7 0 a3.5 3.5 0 1 0 -7 0zM819.53 211.87 a3.5 3.5 0 1 0 7 0 a3.5 3.5 0 1 0 -7 0zM910.46 264.37 a3.5 3.5 0 1 0 7 0 a3.5 3.5 0 1 0 -7 0zM910.46 299.37 a3.5 3.5 0 1 0 7 0 a3.5 3.5 0 1 0 -7 0zM880.15 316.87 a3.5 3.5 0 1 0 7 0 a3.5 3.5 0 1 0 -7 0zM849.84 299.37 a3.5 3.5 0 1 0 7 0 a3.5 3.5 0 1 0 -7 0zM880.15 421.87 a3.5 3.5 0 1 0 7 0 a3.5 3.5 0 1 0 -7 0zM880.15 456.87 a3.5 3.5 0 1 0 7 0 a3.5 3.5 0 1 0 -7 0zM849.84 474.37 a3.5 3.5 0 1 0 7 0 a3.5 3.5 0 1 0 -7 0zM819.53 456.87 a3.5 3.5 0 1 0 7 0 a3.5 3.5 0 1 0 -7 0zM880.15 561.87 a3.5 3.5 0 1 0 7 0 a3.5 3.5 0 1 0 -7 0zM910.46 579.37 a3.5 3.5 0 1 0 7 0 a3.5 3.5 0 1 0 -7 0zM910.46 614.37 a3.5 3.5 0 1 0 7 0 a3.5 3.5 0 1 0 -7 0zM880.15 631.87 a3.5 3.5 0 1 0 7 0 a3.5 3.5 0 1 0 -7 0zM849.84 614.37 a3.5 3.5 0 1 0 7 0 a3.5 3.5 0 1 0 -7 0zM849.84 579.37 a3.5 3.5 0 1 0 7 0 a3.5 3.5 0 1 0 -7 0zM971.09 194.37 a3.5 3.5 0 1 0 7 0 a3.5 3.5 0 1 0 -7 0zM1001.4 211.87 a3.5 3.5 0 1 0 7 0 a3.5 3.5 0 1 0 -7 0zM1001.4 246.87 a3.5 3.5 0 1 0 7 0 a3.5 3.5 0 1 0 -7 0zM971.09 264.37 a3.5 3.5 0 1 0 7 0 a3.5 3.5 0 1 0 -7 0zM940.77 246.87 a3.5 3.5 0 1 0 7 0 a3.5 3.5 0 1 0 -7 0zM940.77 211.87 a3.5 3.5 0 1 0 7 0 a3.5 3.5 0 1 0 -7 0zM971.09 404.37 a3.5 3.5 0 1 0 7 0 a3.5 3.5 0 1 0 -7 0zM1001.4 421.87 a3.5 3.5 0 1 0 7 0 a3.5 3.5 0 1 0 -7 0zM1001.4 456.87 a3.5 3.5 0 1 0 7 0 a3.5 3.5 0 1 0 -7 0zM971.09 474.37 a3.5 3.5 0 1 0 7 0 a3.5 3.5 0 1 0 -7 0zM940.77 456.87 a3.5 3.5 0 1 0 7 0 a3.5 3.5 0 1 0 -7 0zM940.77 421.87 a3.5 3.5 0 1 0 7 0 a3.5 3.5 0 1 0 -7 0zM1062.02 36.87 a3.5 3.5 0 1 0 7 0 a3.5 3.5 0 1 0 -7 0zM1092.33 54.37 a3.5 3.5 0 1 0 7 0 a3.5 3.5 0 1 0 -7 0zM1092.33 89.37 a3.5 3.5 0 1 0 7 0 a3.5 3.5 0 1 0 -7 0zM1062.02 106.87 a3.5 3.5 0 1 0 7 0 a3.5 3.5 0 1 0 -7 0zM1031.71 89.37 a3.5 3.5 0 1 0 7 0 a3.5 3.5 0 1 0 -7 0zM1031.71 54.37 a3.5 3.5 0 1 0 7 0 a3.5 3.5 0 1 0 -7 0zM1062.02 141.87 a3.5 3.5 0 1 0 7 0 a3.5 3.5 0 1 0 -7 0zM1031.71 159.37 a3.5 3.5 0 1 0 7 0 a3.5 3.5 0 1 0 -7 0zM1001.4 141.87 a3.5 3.5 0 1 0 7 0 a3.5 3.5 0 1 0 -7 0zM1001.4 106.87 a3.5 3.5 0 1 0 7 0 a3.5 3.5 0 1 0 -7 0zM1031.71 404.37 a3.5 3.5 0 1 0 7 0 a3.5 3.5 0 1 0 -7 0zM1062.02 421.87 a3.5 3.5 0 1 0 7 0 a3.5 3.5 0 1 0 -7 0zM1062.02 456.87 a3.5 3.5 0 1 0 7 0 a3.5 3.5 0 1 0 -7 0zM1031.71 474.37 a3.5 3.5 0 1 0 7 0 a3.5 3.5 0 1 0 -7 0zM1122.64 141.87 a3.5 3.5 0 1 0 7 0 a3.5 3.5 0 1 0 -7 0zM1152.96 159.37 a3.5 3.5 0 1 0 7 0 a3.5 3.5 0 1 0 -7 0zM1152.96 194.37 a3.5 3.5 0 1 0 7 0 a3.5 3.5 0 1 0 -7 0zM1122.64 211.87 a3.5 3.5 0 1 0 7 0 a3.5 3.5 0 1 0 -7 0zM1092.33 194.37 a3.5 3.5 0 1 0 7 0 a3.5 3.5 0 1 0 -7 0zM1092.33 159.37 a3.5 3.5 0 1 0 7 0 a3.5 3.5 0 1 0 -7 0zM1092.33 509.37 a3.5 3.5 0 1 0 7 0 a3.5 3.5 0 1 0 -7 0zM1122.64 526.87 a3.5 3.5 0 1 0 7 0 a3.5 3.5 0 1 0 -7 0zM1122.64 561.87 a3.5 3.5 0 1 0 7 0 a3.5 3.5 0 1 0 -7 0zM1092.33 579.37 a3.5 3.5 0 1 0 7 0 a3.5 3.5 0 1 0 -7 0zM1062.02 561.87 a3.5 3.5 0 1 0 7 0 a3.5 3.5 0 1 0 -7 0zM1062.02 526.87 a3.5 3.5 0 1 0 7 0 a3.5 3.5 0 1 0 -7 0zM1183.27 36.87 a3.5 3.5 0 1 0 7 0 a3.5 3.5 0 1 0 -7 0zM1213.58 54.37 a3.5 3.5 0 1 0 7 0 a3.5 3.5 0 1 0 -7 0zM1213.58 89.37 a3.5 3.5 0 1 0 7 0 a3.5 3.5 0 1 0 -7 0zM1183.27 106.87 a3.5 3.5 0 1 0 7 0 a3.5 3.5 0 1 0 -7 0zM1152.96 89.37 a3.5 3.5 0 1 0 7 0 a3.5 3.5 0 1 0 -7 0zM1152.96 54.37 a3.5 3.5 0 1 0 7 0 a3.5 3.5 0 1 0 -7 0zM1183.27 141.87 a3.5 3.5 0 1 0 7 0 a3.5 3.5 0 1 0 -7 0zM1122.64 106.87 a3.5 3.5 0 1 0 7 0 a3.5 3.5 0 1 0 -7 0zM1183.27 211.87 a3.5 3.5 0 1 0 7 0 a3.5 3.5 0 1 0 -7 0zM1183.27 246.87 a3.5 3.5 0 1 0 7 0 a3.5 3.5 0 1 0 -7 0zM1152.96 264.37 a3.5 3.5 0 1 0 7 0 a3.5 3.5 0 1 0 -7 0zM1122.64 246.87 a3.5 3.5 0 1 0 7 0 a3.5 3.5 0 1 0 -7 0zM1152.96 299.37 a3.5 3.5 0 1 0 7 0 a3.5 3.5 0 1 0 -7 0zM1183.27 316.87 a3.5 3.5 0 1 0 7 0 a3.5 3.5 0 1 0 -7 0zM1183.27 351.87 a3.5 3.5 0 1 0 7 0 a3.5 3.5 0 1 0 -7 0zM1152.96 369.37 a3.5 3.5 0 1 0 7 0 a3.5 3.5 0 1 0 -7 0zM1122.64 351.87 a3.5 3.5 0 1 0 7 0 a3.5 3.5 0 1 0 -7 0zM1122.64 316.87 a3.5 3.5 0 1 0 7 0 a3.5 3.5 0 1 0 -7 0zM1152.96 404.37 a3.5 3.5 0 1 0 7 0 a3.5 3.5 0 1 0 -7 0zM1183.27 421.87 a3.5 3.5 0 1 0 7 0 a3.5 3.5 0 1 0 -7 0zM1183.27 456.87 a3.5 3.5 0 1 0 7 0 a3.5 3.5 0 1 0 -7 0zM1152.96 474.37 a3.5 3.5 0 1 0 7 0 a3.5 3.5 0 1 0 -7 0zM1122.64 456.87 a3.5 3.5 0 1 0 7 0 a3.5 3.5 0 1 0 -7 0zM1122.64 421.87 a3.5 3.5 0 1 0 7 0 a3.5 3.5 0 1 0 -7 0zM1243.89 36.87 a3.5 3.5 0 1 0 7 0 a3.5 3.5 0 1 0 -7 0zM1274.2 54.37 a3.5 3.5 0 1 0 7 0 a3.5 3.5 0 1 0 -7 0zM1274.2 89.37 a3.5 3.5 0 1 0 7 0 a3.5 3.5 0 1 0 -7 0zM1243.89 106.87 a3.5 3.5 0 1 0 7 0 a3.5 3.5 0 1 0 -7 0zM1304.52 36.87 a3.5 3.5 0 1 0 7 0 a3.5 3.5 0 1 0 -7 0zM1334.83 54.37 a3.5 3.5 0 1 0 7 0 a3.5 3.5 0 1 0 -7 0zM1334.83 89.37 a3.5 3.5 0 1 0 7 0 a3.5 3.5 0 1 0 -7 0zM1304.52 106.87 a3.5 3.5 0 1 0 7 0 a3.5 3.5 0 1 0 -7 0zM1304.52 141.87 a3.5 3.5 0 1 0 7 0 a3.5 3.5 0 1 0 -7 0zM1274.2 159.37 a3.5 3.5 0 1 0 7 0 a3.5 3.5 0 1 0 -7 0zM1243.89 141.87 a3.5 3.5 0 1 0 7 0 a3.5 3.5 0 1 0 -7 0zM1304.52 246.87 a3.5 3.5 0 1 0 7 0 a3.5 3.5 0 1 0 -7 0zM1334.83 264.37 a3.5 3.5 0 1 0 7 0 a3.5 3.5 0 1 0 -7 0zM1334.83 299.37 a3.5 3.5 0 1 0 7 0 a3.5 3.5 0 1 0 -7 0zM1304.52 316.87 a3.5 3.5 0 1 0 7 0 a3.5 3.5 0 1 0 -7 0zM1274.2 299.37 a3.5 3.5 0 1 0 7 0 a3.5 3.5 0 1 0 -7 0zM1274.2 264.37 a3.5 3.5 0 1 0 7 0 a3.5 3.5 0 1 0 -7 0zM1304.52 351.87 a3.5 3.5 0 1 0 7 0 a3.5 3.5 0 1 0 -7 0zM1274.2 369.37 a3.5 3.5 0 1 0 7 0 a3.5 3.5 0 1 0 -7 0zM1243.89 351.87 a3.5 3.5 0 1 0 7 0 a3.5 3.5 0 1 0 -7 0zM1243.89 316.87 a3.5 3.5 0 1 0 7 0 a3.5 3.5 0 1 0 -7 0zM1274.2 404.37 a3.5 3.5 0 1 0 7 0 a3.5 3.5 0 1 0 -7 0zM1304.52 421.87 a3.5 3.5 0 1 0 7 0 a3.5 3.5 0 1 0 -7 0zM1304.52 456.87 a3.5 3.5 0 1 0 7 0 a3.5 3.5 0 1 0 -7 0zM1274.2 474.37 a3.5 3.5 0 1 0 7 0 a3.5 3.5 0 1 0 -7 0zM1243.89 456.87 a3.5 3.5 0 1 0 7 0 a3.5 3.5 0 1 0 -7 0zM1243.89 421.87 a3.5 3.5 0 1 0 7 0 a3.5 3.5 0 1 0 -7 0zM1334.83 194.37 a3.5 3.5 0 1 0 7 0 a3.5 3.5 0 1 0 -7 0zM1365.14 211.87 a3.5 3.5 0 1 0 7 0 a3.5 3.5 0 1 0 -7 0zM1365.14 246.87 a3.5 3.5 0 1 0 7 0 a3.5 3.5 0 1 0 -7 0zM1304.52 211.87 a3.5 3.5 0 1 0 7 0 a3.5 3.5 0 1 0 -7 0zM1334.83 404.37 a3.5 3.5 0 1 0 7 0 a3.5 3.5 0 1 0 -7 0zM1365.14 421.87 a3.5 3.5 0 1 0 7 0 a3.5 3.5 0 1 0 -7 0zM1365.14 456.87 a3.5 3.5 0 1 0 7 0 a3.5 3.5 0 1 0 -7 0zM1334.83 474.37 a3.5 3.5 0 1 0 7 0 a3.5 3.5 0 1 0 -7 0zM1425.76 36.87 a3.5 3.5 0 1 0 7 0 a3.5 3.5 0 1 0 -7 0zM1456.07 54.37 a3.5 3.5 0 1 0 7 0 a3.5 3.5 0 1 0 -7 0zM1456.07 89.37 a3.5 3.5 0 1 0 7 0 a3.5 3.5 0 1 0 -7 0zM1425.76 106.87 a3.5 3.5 0 1 0 7 0 a3.5 3.5 0 1 0 -7 0zM1395.45 89.37 a3.5 3.5 0 1 0 7 0 a3.5 3.5 0 1 0 -7 0zM1395.45 54.37 a3.5 3.5 0 1 0 7 0 a3.5 3.5 0 1 0 -7 0zM1395.45 194.37 a3.5 3.5 0 1 0 7 0 a3.5 3.5 0 1 0 -7 0zM1425.76 211.87 a3.5 3.5 0 1 0 7 0 a3.5 3.5 0 1 0 -7 0zM1425.76 246.87 a3.5 3.5 0 1 0 7 0 a3.5 3.5 0 1 0 -7 0zM1395.45 264.37 a3.5 3.5 0 1 0 7 0 a3.5 3.5 0 1 0 -7 0zM1395.45 299.37 a3.5 3.5 0 1 0 7 0 a3.5 3.5 0 1 0 -7 0zM1425.76 316.87 a3.5 3.5 0 1 0 7 0 a3.5 3.5 0 1 0 -7 0zM1425.76 351.87 a3.5 3.5 0 1 0 7 0 a3.5 3.5 0 1 0 -7 0zM1395.45 369.37 a3.5 3.5 0 1 0 7 0 a3.5 3.5 0 1 0 -7 0zM1365.14 351.87 a3.5 3.5 0 1 0 7 0 a3.5 3.5 0 1 0 -7 0zM1365.14 316.87 a3.5 3.5 0 1 0 7 0 a3.5 3.5 0 1 0 -7 0zM1425.76 456.87 a3.5 3.5 0 1 0 7 0 a3.5 3.5 0 1 0 -7 0zM1456.07 474.37 a3.5 3.5 0 1 0 7 0 a3.5 3.5 0 1 0 -7 0zM1456.07 509.37 a3.5 3.5 0 1 0 7 0 a3.5 3.5 0 1 0 -7 0zM1425.76 526.87 a3.5 3.5 0 1 0 7 0 a3.5 3.5 0 1 0 -7 0zM1395.45 509.37 a3.5 3.5 0 1 0 7 0 a3.5 3.5 0 1 0 -7 0zM1395.45 474.37 a3.5 3.5 0 1 0 7 0 a3.5 3.5 0 1 0 -7 0zM1425.76 561.87 a3.5 3.5 0 1 0 7 0 a3.5 3.5 0 1 0 -7 0zM1395.45 579.37 a3.5 3.5 0 1 0 7 0 a3.5 3.5 0 1 0 -7 0zM1365.14 561.87 a3.5 3.5 0 1 0 7 0 a3.5 3.5 0 1 0 -7 0zM1365.14 526.87 a3.5 3.5 0 1 0 7 0 a3.5 3.5 0 1 0 -7 0z" fill="rgba(141, 134, 255, 1)"></path><path d="M17.49 77.83L47.8 95.33L47.8 130.33L17.49 147.83L-12.82 130.33L-12.82 95.33zM47.8 130.33L78.11 147.83L78.11 182.83L47.8 200.33L17.49 182.83L17.49 147.83zM47.8 235.33L78.11 252.83L78.11 287.83L47.8 305.33L17.49 287.83L17.49 252.83zM17.49 287.83L47.8 305.33L47.8 340.33L17.49 357.83L-12.82 340.33L-12.82 305.33zM47.8 340.33L78.11 357.83L78.11 392.83L47.8 410.33L17.49 392.83L17.49 357.83zM78.11 -27.17L108.43 -9.67L108.43 25.33L78.11 42.83L47.8 25.33L47.8 -9.67zM108.43 25.33L138.74 42.83L138.74 77.83L108.43 95.33L78.11 77.83L78.11 42.83zM78.11 77.83L108.43 95.33L108.43 130.33L78.11 147.83L47.8 130.33L47.8 95.33zM108.43 235.33L138.74 252.83L138.74 287.83L108.43 305.33L78.11 287.83L78.11 252.83zM78.11 392.83L108.43 410.33L108.43 445.33L78.11 462.83L47.8 445.33L47.8 410.33zM108.43 550.33L138.74 567.83L138.74 602.83L108.43 620.33L78.11 602.83L78.11 567.83zM138.74 77.83L169.05 95.33L169.05 130.33L138.74 147.83L108.43 130.33L108.43 95.33zM138.74 182.83L169.05 200.33L169.05 235.33L138.74 252.83L108.43 235.33L108.43 200.33zM169.05 235.33L199.36 252.83L199.36 287.83L169.05 305.33L138.74 287.83L138.74 252.83zM138.74 497.83L169.05 515.33L169.05 550.33L138.74 567.83L108.43 550.33L108.43 515.33zM199.36 77.83L229.67 95.33L229.67 130.33L199.36 147.83L169.05 130.33L169.05 95.33zM229.67 130.33L259.98 147.83L259.98 182.83L229.67 200.33L199.36 182.83L199.36 147.83zM199.36 182.83L229.67 200.33L229.67 235.33L199.36 252.83L169.05 235.33L169.05 200.33zM229.67 235.33L259.98 252.83L259.98 287.83L229.67 305.33L199.36 287.83L199.36 252.83zM199.36 287.83L229.67 305.33L229.67 340.33L199.36 357.83L169.05 340.33L169.05 305.33zM229.67 550.33L259.98 567.83L259.98 602.83L229.67 620.33L199.36 602.83L199.36 567.83zM259.98 -27.17L290.3 -9.67L290.3 25.33L259.98 42.83L229.67 25.33L229.67 -9.67zM290.3 25.33L320.61 42.83L320.61 77.83L290.3 95.33L259.98 77.83L259.98 42.83zM259.98 182.83L290.3 200.33L290.3 235.33L259.98 252.83L229.67 235.33L229.67 200.33zM259.98 287.83L290.3 305.33L290.3 340.33L259.98 357.83L229.67 340.33L229.67 305.33zM350.92 130.33L381.23 147.83L381.23 182.83L350.92 200.33L320.61 182.83L320.61 147.83zM320.61 392.83L350.92 410.33L350.92 445.33L320.61 462.83L290.3 445.33L290.3 410.33zM350.92 445.33L381.23 462.83L381.23 497.83L350.92 515.33L320.61 497.83L320.61 462.83zM381.23 -27.17L411.54 -9.67L411.54 25.33L381.23 42.83L350.92 25.33L350.92 -9.67zM381.23 287.83L411.54 305.33L411.54 340.33L381.23 357.83L350.92 340.33L350.92 305.33zM411.54 340.33L441.85 357.83L441.85 392.83L411.54 410.33L381.23 392.83L381.23 357.83zM441.85 -27.17L472.17 -9.67L472.17 25.33L441.85 42.83L411.54 25.33L411.54 -9.67zM441.85 392.83L472.17 410.33L472.17 445.33L441.85 462.83L411.54 445.33L411.54 410.33zM472.17 445.33L502.48 462.83L502.48 497.83L472.17 515.33L441.85 497.83L441.85 462.83zM441.85 497.83L472.17 515.33L472.17 550.33L441.85 567.83L411.54 550.33L411.54 515.33zM532.79 130.33L563.1 147.83L563.1 182.83L532.79 200.33L502.48 182.83L502.48 147.83zM532.79 340.33L563.1 357.83L563.1 392.83L532.79 410.33L502.48 392.83L502.48 357.83zM502.48 392.83L532.79 410.33L532.79 445.33L502.48 462.83L472.17 445.33L472.17 410.33zM532.79 550.33L563.1 567.83L563.1 602.83L532.79 620.33L502.48 602.83L502.48 567.83zM563.1 77.83L593.41 95.33L593.41 130.33L563.1 147.83L532.79 130.33L532.79 95.33zM563.1 182.83L593.41 200.33L593.41 235.33L563.1 252.83L532.79 235.33L532.79 200.33zM563.1 287.83L593.41 305.33L593.41 340.33L563.1 357.83L532.79 340.33L532.79 305.33zM593.41 340.33L623.72 357.83L623.72 392.83L593.41 410.33L563.1 392.83L563.1 357.83zM654.04 130.33L684.35 147.83L684.35 182.83L654.04 200.33L623.73 182.83L623.73 147.83zM623.73 287.83L654.04 305.33L654.04 340.33L623.73 357.83L593.41 340.33L593.41 305.33zM654.04 340.33L684.35 357.83L684.35 392.83L654.04 410.33L623.73 392.83L623.73 357.83zM623.73 392.83L654.04 410.33L654.04 445.33L623.73 462.83L593.41 445.33L593.41 410.33zM654.04 550.33L684.35 567.83L684.35 602.83L654.04 620.33L623.73 602.83L623.73 567.83zM714.66 130.33L744.97 147.83L744.97 182.83L714.66 200.33L684.35 182.83L684.35 147.83zM714.66 235.33L744.97 252.83L744.97 287.83L714.66 305.33L684.35 287.83L684.35 252.83zM744.97 -27.17L775.28 -9.67L775.28 25.33L744.97 42.83L714.66 25.33L714.66 -9.67zM744.97 182.83L775.28 200.33L775.28 235.33L744.97 252.83L714.66 235.33L714.66 200.33zM775.28 445.33L805.6 462.83L805.6 497.83L775.28 515.33L744.97 497.83L744.97 462.83zM775.28 550.33L805.6 567.83L805.6 602.83L775.28 620.33L744.97 602.83L744.97 567.83zM835.91 25.33L866.22 42.83L866.22 77.83L835.91 95.33L805.6 77.83L805.6 42.83zM835.91 235.33L866.22 252.83L866.22 287.83L835.91 305.33L805.6 287.83L805.6 252.83zM835.91 445.33L866.22 462.83L866.22 497.83L835.91 515.33L805.6 497.83L805.6 462.83zM835.91 550.33L866.22 567.83L866.22 602.83L835.91 620.33L805.6 602.83L805.6 567.83zM866.22 77.83L896.53 95.33L896.53 130.33L866.22 147.83L835.91 130.33L835.91 95.33zM866.22 182.83L896.53 200.33L896.53 235.33L866.22 252.83L835.91 235.33L835.91 200.33zM866.22 287.83L896.53 305.33L896.53 340.33L866.22 357.83L835.91 340.33L835.91 305.33zM957.15 25.33L987.47 42.83L987.47 77.83L957.15 95.33L926.84 77.83L926.84 42.83zM957.15 235.33L987.47 252.83L987.47 287.83L957.15 305.33L926.84 287.83L926.84 252.83zM926.84 392.83L957.15 410.33L957.15 445.33L926.84 462.83L896.53 445.33L896.53 410.33zM957.15 445.33L987.47 462.83L987.47 497.83L957.15 515.33L926.84 497.83L926.84 462.83zM926.84 497.83L957.15 515.33L957.15 550.33L926.84 567.83L896.53 550.33L896.53 515.33zM957.15 550.33L987.47 567.83L987.47 602.83L957.15 620.33L926.84 602.83L926.84 567.83zM1017.78 25.33L1048.09 42.83L1048.09 77.83L1017.78 95.33L987.47 77.83L987.47 42.83zM1017.78 445.33L1048.09 462.83L1048.09 497.83L1017.78 515.33L987.47 497.83L987.47 462.83zM1078.4 235.33L1108.71 252.83L1108.71 287.83L1078.4 305.33L1048.09 287.83L1048.09 252.83zM1048.09 392.83L1078.4 410.33L1078.4 445.33L1048.09 462.83L1017.78 445.33L1017.78 410.33zM1048.09 497.83L1078.4 515.33L1078.4 550.33L1048.09 567.83L1017.78 550.33L1017.78 515.33zM1078.4 550.33L1108.71 567.83L1108.71 602.83L1078.4 620.33L1048.09 602.83L1048.09 567.83zM1139.02 25.33L1169.34 42.83L1169.34 77.83L1139.02 95.33L1108.71 77.83L1108.71 42.83zM1139.02 130.33L1169.34 147.83L1169.34 182.83L1139.02 200.33L1108.71 182.83L1108.71 147.83zM1139.02 235.33L1169.34 252.83L1169.34 287.83L1139.02 305.33L1108.71 287.83L1108.71 252.83zM1139.02 550.33L1169.34 567.83L1169.34 602.83L1139.02 620.33L1108.71 602.83L1108.71 567.83zM1199.65 130.33L1229.96 147.83L1229.96 182.83L1199.65 200.33L1169.34 182.83L1169.34 147.83zM1169.34 182.83L1199.65 200.33L1199.65 235.33L1169.34 252.83L1139.02 235.33L1139.02 200.33zM1169.34 392.83L1199.65 410.33L1199.65 445.33L1169.34 462.83L1139.02 445.33L1139.02 410.33zM1199.65 550.33L1229.96 567.83L1229.96 602.83L1199.65 620.33L1169.34 602.83L1169.34 567.83zM1229.96 -27.17L1260.27 -9.67L1260.27 25.33L1229.96 42.83L1199.65 25.33L1199.65 -9.67zM1260.27 445.33L1290.58 462.83L1290.58 497.83L1260.27 515.33L1229.96 497.83L1229.96 462.83zM1290.58 77.83L1320.9 95.33L1320.9 130.33L1290.58 147.83L1260.27 130.33L1260.27 95.33zM1290.58 182.83L1320.9 200.33L1320.9 235.33L1290.58 252.83L1260.27 235.33L1260.27 200.33zM1320.9 340.33L1351.21 357.83L1351.21 392.83L1320.9 410.33L1290.58 392.83L1290.58 357.83zM1351.21 -27.17L1381.52 -9.67L1381.52 25.33L1351.21 42.83L1320.9 25.33L1320.9 -9.67zM1381.52 25.33L1411.83 42.83L1411.83 77.83L1381.52 95.33L1351.21 77.83L1351.21 42.83zM1351.21 77.83L1381.52 95.33L1381.52 130.33L1351.21 147.83L1320.9 130.33L1320.9 95.33zM1381.52 130.33L1411.83 147.83L1411.83 182.83L1381.52 200.33L1351.21 182.83L1351.21 147.83zM1351.21 392.83L1381.52 410.33L1381.52 445.33L1351.21 462.83L1320.9 445.33L1320.9 410.33zM1381.52 550.33L1411.83 567.83L1411.83 602.83L1381.52 620.33L1351.21 602.83L1351.21 567.83zM1442.14 235.33L1472.45 252.83L1472.45 287.83L1442.14 305.33L1411.83 287.83L1411.83 252.83zM1411.83 287.83L1442.14 305.33L1442.14 340.33L1411.83 357.83L1381.52 340.33L1381.52 305.33zM1411.83 392.83L1442.14 410.33L1442.14 445.33L1411.83 462.83L1381.52 445.33L1381.52 410.33zM1411.83 497.83L1442.14 515.33L1442.14 550.33L1411.83 567.83L1381.52 550.33L1381.52 515.33zM1442.14 550.33L1472.45 567.83L1472.45 602.83L1442.14 620.33L1411.83 602.83L1411.83 567.83z" stroke="rgba(204, 201, 255, 1)" stroke-width="2"></path></g><defs><mask id="SvgjsMask1013"><rect width="1440" height="560" fill="#ffffff"></rect></mask></defs></svg>